# xmcd
#
# Track frame offsets:
# 150
# 28124
# 49576
# 68660
# 88034
# 103128
# 121684
# 140242
# 165484
# 183180
# 200222
# 218209
# 236431
# 256461
# 275650
# 295701
# 314969
# 333576
#
# Disc length: 4668 seconds
#
#
# Revision: 2
# Processed by: cddbd v1.5.1PL2 Copyright (c) Steve Scherf et al.
# Submitted via: FreeRIP 2.945 
#
DISCID=1a123a12
DTITLE=Various Artist - Discoteka 80 - 90
DYEAR=2003
DGENRE=other
TTITLE0=J. Belousov - Devochka moya sineglazaya
TTITLE1=A. Dobrinin - Rozovie rozi
TTITLE2=Stalker - Bez tebya
TTITLE3=Kombinaziya - Vishnevaya devyatka
TTITLE4=Elektroklub - Ti zamuj za nego ne vihodi
TTITLE5=I. Allegrova - Moy laskoviy i nejniy zver
TTITLE6=Fristail - Bog tebya nakajet
TTITLE7=M. Juravleva - Poceluy menya tolko raz
TTITLE8=S. Minaev - Sha-la-lu-la
TTITLE9=Van Moo - Narodnoe tehno
TTITLE10=A. Apina - Leha
TTITLE11=V. Leontev - Ya zavodnoy
TTITLE12=N. Vetliczkaya - Playboy
TTITLE13=M. Muromov - Yabloki na snegu
TTITLE14=S. Vladimirskaya - Malchik moy
TTITLE15=S. Razina - Ti budesh plakat
TTITLE16=Komissar - Adrenalin
TTITLE17=U. Shatunov - Leto
EXTD=
EXTT0=
EXTT1=
EXTT2=
EXTT3=
EXTT4=
EXTT5=
EXTT6=
EXTT7=
EXTT8=
EXTT9=
EXTT10=
EXTT11=
EXTT12=
EXTT13=
EXTT14=
EXTT15=
EXTT16=
EXTT17=
PLAYORDER=
